
<svg version="1.1" xmlns="http://www.w3.org/2000/svg" xmlns:xlink="http://www.w3.org/1999/xlink" viewBox="0 -10 290 263">
  <g id="Layer_1">
    <set
      id="delay"
      attributeType="CSS"
      attributeName="visibility"
      to="hidden"
      dur="6170ms"
    />
    <line id="ground" fill="none" stroke="#FFFFFF" stroke-width="2" stroke-linecap="round" stroke-linejoin="round" x1="1" y1="251.2" x2="258.5" y2="251.2"/>

    <g id="suitcaseTopOpened">
      <set
        attributeType="CSS"
        attributeName="visibility"
        to="hidden"
        begin="delay.end"
        dur="533ms"
      />

      <path display="inline" fill="#A67EE5" d="M208.7,154.3c3.1,0,5.7-2.5,5.7-5.7s-2.5-5.7-5.7-5.7c-3.1,0-5.7,2.5-5.7,5.7S205.5,154.3,208.7,154.3L208.7,154.3"/>
      <circle display="inline" fill="none" stroke="#FFFFFF" stroke-width="2" stroke-miterlimit="10" cx="208.7" cy="148.6" r="5.7"/>
      <path display="inline" fill="#A67EE5" d="M195.1,132.7H22c-6.6,0-11.9,5.3-12,11.9v53.6c0,7.2,5.8,13,13,13l0,0h184v-66.6C206.9,138,201.6,132.7,195.1,132.7"/>
      <path display="inline" fill="none" stroke="#FFFFFF" stroke-width="2" stroke-miterlimit="10" d="M195.1,132.7H22c-6.6,0-11.9,5.3-12,11.9v53.6c0,7.2,5.8,13,13,13l0,0h184v-66.6C206.9,138,201.6,132.7,195.1,132.7z"/>
      <path display="inline" fill="none" stroke="#FFFFFF" stroke-width="2" d="M25,211.2v-63.5c0-8.3,6.7-15,15-15l0,0h0.5"/>
    </g>

    <g id="flowers">
      <set
        attributeType="CSS"
        attributeName="visibility"
        to="hidden"
        begin="delay.end"
        dur="533ms"
      />

      <animateTransform
        attributeName="transform"
        type="rotate"
        values="51.64 133 210; -10 133 210; 4 133 210; -2 133 210; 0 133 210;"
        begin="delay.end + 533ms"
        dur="1367ms"
        calcMode="spline"
        keySplines="0.45, 0, 0.85, 1;
                    0.33, 0, 0.67, 1;
                    0.33, 0, 0.67, 1;
                    0.33, 0, 0.67, 1;"
      />

      <path display="inline" fill="none" stroke="#FFFFFF" stroke-width="2" stroke-linecap="round" stroke-linejoin="round" d="M135.5,200c0,0,8.3-74.6,39.7-90"/>
      <path display="inline" fill="#3B7BF2" d="M172.7,109.3l9.3-24.5c3.1,0.4,6.1,1.4,8.7,3c3.6-2.4,8.5-1.5,10.9,2.1c2.2,3.2,1.7,7.6-1.2,10.2c0.9,3,1.2,6.1,0.9,9.2l-26,3.3c-1.3,0.2-2.6-0.8-2.7-2.1C172.5,110.1,172.5,109.7,172.7,109.3">
        <animateTransform
          attributeName="transform"
          type="rotate"
          values="36 133 210; 0 133 210"
          begin="delay.end + 533ms"
          dur="167ms"
        />
      </path>

      <path display="inline" fill="none" stroke="#FFFFFF" stroke-width="2" stroke-linecap="round" stroke-linejoin="round" d="M133,209.8c0,0,6.9-44.7,37.9-56.5"/>
      <path display="inline" fill="#3B7BF2" d="M165.6,154.2l9-16.5c2.2,0.5,4.3,1.5,6.1,2.9c1.2-0.6,2.7-0.8,4-0.4 c3.1,0.7,5,3.7,4.3,6.8c0,0,0,0,0,0.1c-0.3,1.3-1.2,2.5-2.3,3.2c0.4,2.2,0.3,4.4-0.2,6.6l-19.3-0.1c-1,0-1.8-0.7-1.8-1.7C165.4,154.8,165.4,154.5,165.6,154.2">
        <animateTransform
          attributeName="transform"
          type="rotate"
          values="26 133 210; 0 133 210"
          begin="delay.end + 533ms"
          dur="167ms"
        />
      </path>
    </g>


    <line id="thread" fill="none" stroke="#FFFFFF" stroke-width="2" stroke-linecap="round" stroke-miterlimit="10" x1="62" y1="211" x2="62" y2="211">
      <animate
        attributeName="y2"
        values="211; 90; 112; 80; 100; 90; 95; 90"
        begin="delay.end + 533ms"
        dur="2s"
        keyTimes="0; 0.28; 0.44; 0.55; 0.675; 0.795; 0.9155; 1"
        calcMode="spline"
        keySplines="0.5, 0, 0.87, 1;
        0.33, 0, 0.67, 1;
        0.33, 0, 0.67, 1;
        0.33, 0, 0.67, 1;
        0.33, 0, 0.67, 1;
        0.33, 0, 0.67, 1;
        0.33, 0, 0.67, 1"
        fill="freeze"
      />
      <animate
        attributeName="x2"
        values="62; 62; 68; 55; 58; 62; 60; 62"
        begin="delay.end + 533ms"
        dur="2s"
        fill="freeze"
        keyTimes="0; 0.28; 0.44; 0.55; 0.675; 0.795; 0.9155; 1"
      />

    </line>

    <g id="baloon"
      transform="translate(62, 247)">
        <set
          attributeType="CSS"
          attributeName="visibility"
          to="hidden"
          begin="delay.end"
          dur="533ms"
        />

      <animateMotion
        values="0,0; 0,-161; 5,-136; -8,-166; -5,-146; 0,-161; -3,-155; 0,-161"
        begin="delay.end + 533ms"
        dur="2s"
        keyTimes="0; 0.28; 0.44; 0.55; 0.675; 0.795; 0.9155; 1"
        calcMode="spline"
        keySplines="0.5, 0, 0.87, 1;
        0.33, 0, 0.67, 1;
        0.33, 0, 0.67, 1;
        0.33, 0, 0.67, 1;
        0.33, 0, 0.67, 1;
        0.33, 0, 0.67, 1;
        0.33, 0, 0.67, 1"
        fill="freeze"
      />

      <animateTransform
        attributeName="transform"
        type="rotate"
        values="45; -11.72; 6.06; -5.28; 4.67; 0"
        keyTimes="0; 0.35; 0.5; 0.65; 0.82; 1"
        begin="delay.end + 533ms"
        dur="2200ms"
        calcMode="spline"
        keySplines="0.5, 0, 0.67, 1;
                    0.33, 0, 0.67, 1;
                    0.33, 0, 0.67, 1;
                    0.33, 0, 0.67, 1;
                    0.33, 0, 0.67, 1"
        additive="sum" />


      <path fill="#FFFFFF" d="M-0.8-0.9L-3,2.9c-0.4,0.6-0.1,1.5,0.5,1.8C-2.3,4.8-2,4.9-1.8,4.9h4.4c0.7,0,1.3-0.6,1.3-1.3c0-0.2-0.1-0.5-0.2-0.7L1.6-0.9C1.2-1.5,0.4-1.8-0.3-1.4C-0.5-1.3-0.7-1.1-0.8-0.9"/>
      <path fill="#FFFFFF" d="M0.4-83.4c18.2,0,32.9,14.7,32.9,32.9C33.3-32.3,18.2-1.6,0-1.6s-32.6-30.7-32.6-48.9C-32.5-68.6-17.8-83.3,0.4-83.4 M0.4-85c-19,0-34.5,15.5-34.5,34.5c0,9.5,3.8,22.1,9.7,32.1C-17.4-6.5-8.8,0,0,0s17.6-6.5,24.8-18.4c6.1-10,10.1-22.6,10.1-32.1C34.9-69.5,19.4-84.9,0.4-85"/>
      <path fill="#76ABFF" d="M-11.3-50.4c0-18.2,5.2-32.9,11.7-32.9c-18.2,0-32.9,14.7-32.9,32.9C-32.5-32.2-18.1-1.5,0-1.5h0.2C-6.2-1.7-11.3-32.3-11.3-50.4"/>
      <path fill="#1553B7" d="M33.3-50.4c0-18.2-14.7-32.9-32.9-32.9c6.4,0,11.7,14.7,11.7,32.9S6.8-1.9,0.4-1.5C18.4-1.9,33.3-32.3,33.3-50.4"/>
      <path fill="#3B7BF2" d="M12.1-50.4c0-18.2-5.2-32.9-11.7-32.9s-11.7,14.7-11.7,32.9S-6.2-1.7,0.2-1.5h0.2C6.8-1.9,12.1-32.3,12.1-50.4"/>
      <g>
        <path fill="#FFFFFF" d="M-6.8-57.4c-3.1,0-5.7,2.6-5.7,5.7S-10-46-6.8-46c3.1,0,5.7-2.6,5.7-5.7v0c0.2-3-2.1-5.5-5.1-5.7C-6.4-57.4-6.6-57.4-6.8-57.4 M-6.8-49.4c-1.9,0-3.1-0.9-3.1-2.3S-8.7-54-6.8-54s3.1,0.9,3.1,2.3S-5-49.4-6.8-49.4"/>
        <path fill="#FFFFFF" d="M7.4-57.4c1,0,1.8,0.8,1.8,1.8c0,0.4-0.1,0.7-0.3,1L-4.5-35.3c-0.6,0.7-1.8,0.8-2.5,0.2c-0.6-0.5-0.8-1.4-0.4-2.2L5.9-56.6C6.2-57.1,6.8-57.4,7.4-57.4"/>
        <path fill="#FFFFFF" d="M8.9-45.9c-3.1,0-5.7,2.6-5.7,5.7s2.6,5.7,5.7,5.7c3.1,0,5.7-2.6,5.7-5.7v0c0.2-3-2.1-5.5-5.1-5.7C9.3-45.9,9.1-45.9,8.9-45.9 M8.9-37.9c-1.9,0-3.1-0.9-3.1-2.3s1.2-2.3,3.1-2.3s3.1,0.9,3.1,2.3S10.7-37.9,8.9-37.9"/>
      </g>
    </g>

    <g id="bird" transform="translate(193, 177)">
      <set
        attributeType="CSS"
        attributeName="visibility"
        to="hidden"
        begin="delay.end"
        dur="533ms"
      />
      <animateMotion
        values="0,0; 65,-76; 48,-66; 65,-76"
        keyTimes="0; 0.23; 0.6; 1"
        begin="delay.end + 533ms"
        dur="2567ms"
        calcMode="spline"
        keySplines="0.33, 0, 0.07, 1;
                  0.51, 0, 0.57, 1;
                  0.49, 0, 0.36, 1"
        fill="freeze"
      />
      <animateTransform
        attributeName="transform"
        type="rotate"
        additive="sum"
        values="-37.46; 3.64; -16.78; -22.3; 1.5; 1.5; -16.78"
        begin="delay.end + 533ms"
        dur="2700ms"
        keyTimes="0; 0.14; 0.23; 0.46; 0.62; 0.84; 1"
        calcMode="spline"
        keySplines="0.33, 0, 0.67, 1;
                    0.33, 0, 0.67, 1;
                    0.33, 0, 0.67, 1;
                    0.33, 0, 0.67, 1;
                    0.33, 0, 0.67, 1;
                    0.33, 0, 0.67, 1"
        fill="freeze"
      />

      <animateTransform
        attributeName="transform"
        type="translate"
        additive="sum"
        begin="delay.end + 3100ms"
        values="0,0; -17,11; 0,0;"
        dur="1990ms"
        repeatCount="indefinite"
      />
      <animateTransform
        attributeName="transform"
        type="rotate"
        additive="sum"
        values="-16.78; -22.3; 1.5; 1.5; -16.78;"
        begin="delay.end + 3166ms"
        dur="2067ms"
        keyTimes="0; 0.3; 0.5; 0.8; 1"
        calcMode="spline"
        keySplines="0.33, 0, 0.67, 1;
                    0.33, 0, 0.67, 1;
                    0.33, 0, 0.67, 1;
                    0.33, 0, 0.67, 1"
        repeatCount="indefinite"
      />


      <path fill="#FFFFFF"
        d="M-0.6-2.3c0-2.3,1.6-4.3,3.8-4.8l0,0l21.1-5.4C16.5,2.3,5.1,2.6,4.3,2.6l0,0C1.5,2.5-0.6,0.3-0.6-2.3">
        <animateTransform
          attributeName="transform"
          type="scale"
          values="-0.43,0.95; 1,1; -0.43,0.95; 1,1"
          begin="delay.end + 533ms"
          dur="133ms"
          repeatCount="indefinite"
        />

      </path>
      <path fill="#FFFFFF"
      d="M-17.6-16.3h10.8c0.7-1.8,2.5-2.9,4.4-2.9c1.4-0.1,2.7,0.6,3.5,1.8c0.6,0.8,1,1.7,1.4,2.6
      C3.1-13.2,6.5,1,8.4,4.4c1.1,2,4.4,7.2,4.4,7.2c0.2,0.3,0.3,0.7,0.3,1.1v9.2c0,0-3.1-1.1-3.1-3.9v-6.5c-1.9,0.3-6-1.6-8.3-2.9
      c-2.9-1.4-5.2-3.8-6.4-6.8C-5.9-1.1-6-4.4-4.8-7.4c0.5-0.9,0.7-1.9,0.8-2.9c-0.1-1.1-1.4-2.7-2.2-4.1L-17.6-16.3z"/>
    </g>


    <g id="suitcaseTopClosed" style="visibility: hidden">
      <set
        attributeType="CSS"
        attributeName="visibility"
        to="visible"
        begin="delay.end"
        dur="533ms"
      />

      <path fill="#A67EE5" d="M179.8,179.8H36.6c-6.4,0-11.6,5.2-11.6,11.6v19.8h166.3v-19.8C191.3,185,186.2,179.9,179.8,179.8"/>
      <path fill="none" stroke="#FFFFFF" stroke-width="2" stroke-miterlimit="10" d="M179.8,179.8H36.6c-6.4,0-11.6,5.2-11.6,11.6v19.8h166.3v-19.8C191.3,185,186.2,179.9,179.8,179.8z"/>
      <path fill="#A67EE5" d="M221,179.8H73.1c-6.5-0.1-11.8,5.1-11.9,11.6v19.8h171.7v-19.8C232.8,184.9,227.5,179.8,221,179.8"/>
      <path fill="none" stroke="#FFFFFF" stroke-width="2" stroke-miterlimit="10" d="M221,179.8H73.1c-6.5-0.1-11.8,5.1-11.9,11.6v19.8h171.7v-19.8C232.8,185,227.5,179.8,221,179.8z"/>
      <path fill="#A67EE5" d="M232.6,201.2c2.9,0,5.3-2.4,5.4-5.3s-2.4-5.3-5.3-5.4c-2.9,0-5.3,2.4-5.4,5.3c0,0,0,0,0,0C227.3,198.8,229.7,201.2,232.6,201.2C232.6,201.2,232.6,201.2,232.6,201.2"/>
      <circle fill="none" stroke="#FFFFFF" stroke-width="2" stroke-miterlimit="10" cx="232.6" cy="195.8" r="5.3"/>
      <path fill="#A67EE5" d="M231.5,191.4v9.8h-10.7c-3.2,0-5.7-2.6-5.7-5.7c0,0,0,0,0,0v-15.6h4.9C226.3,179.9,231.5,185,231.5,191.4"/>
      <path fill="none" stroke="#FFFFFF" stroke-width="2" stroke-miterlimit="10" d="M231.5,191.4v9.8h-10.7c-3.2,0-5.7-2.6-5.7-5.7c0,0,0,0,0,0v-15.6h4.9C226.3,179.9,231.5,185,231.5,191.4z"/>
    </g>

    <g id="suitcaseBottom">
      <path fill="#A67EE5" d="M235.1,240.8c3.1,0.3,6-1.9,6.3-5.1c0.3-3.1-1.9-6-5.1-6.3c-3.1-0.3-6,1.9-6.3,5.1c0,0.2,0,0.4,0,0.6C229.8,238.1,232.1,240.6,235.1,240.8"/>
      <ellipse fill="none" stroke="#FFFFFF" stroke-width="2" stroke-miterlimit="10" cx="235.1" cy="235.1" rx="5.1" ry="5.7"/>
      <path fill="#A67EE5" d="M185,251H37c-6.5,0.1-11.9-5.2-11.9-11.7v-28.2h171.9v28.2C196.8,245.9,191.5,251.1,185,251"/>
      <path fill="none" stroke="#FFFFFF" stroke-width="2" stroke-miterlimit="10" d="M185,251H37c-6.5,0.1-11.9-5.2-11.9-11.7v-28.2h171.9v28.2C196.8,245.9,191.5,251.1,185,251z"/>
      <path fill="#A67EE5" d="M221.5,251h-147c-6.5,0-11.8-5.2-11.9-11.7v-28.2h170.7v28.2C233.3,245.9,228,251.1,221.5,251"/>
      <path fill="none" stroke="#FFFFFF" stroke-width="2" stroke-miterlimit="10" d="M221.5,251h-147c-6.5,0-11.8-5.2-11.9-11.7v-28.2h170.7v28.2C233.3,245.9,228,251.1,221.5,251z"/>
      <path fill="#A67EE5" d="M169.8,236.3h-34.5c-2.3,0-4.3-1.8-4.4-4.2v-11.7c0-0.7,0.6-1.2,1.3-1.2c0,0,0,0,0,0h2.9c0.7,0,1.3,0.5,1.3,1.2v10c0,0.7,0.6,1.3,1.4,1.3h29.7c0.7,0,1.3-0.6,1.4-1.3v-10c0-0.7,0.6-1.2,1.3-1.2c0,0,0,0,0,0h2.9c0.7,0,1.3,0.5,1.3,1.2v11.7C174.1,234.4,172.1,236.3,169.8,236.3"/>
      <path fill="none" stroke="#FFFFFF" stroke-width="2" stroke-miterlimit="10" d="M169.8,236.3h-34.5c-2.3,0-4.3-1.8-4.4-4.2v-11.7c0-0.7,0.6-1.2,1.3-1.2c0,0,0,0,0,0h2.9c0.7,0,1.3,0.5,1.3,1.2v10c0,0.7,0.6,1.3,1.4,1.3h29.7c0.7,0,1.3-0.6,1.4-1.3v-10c0-0.7,0.6-1.2,1.3-1.2c0,0,0,0,0,0h2.9c0.7,0,1.3,0.5,1.3,1.2v11.7C174.1,234.4,172.1,236.3,169.8,236.3C169.8,236.3,169.8,236.3,169.8,236.3z"/>
      <rect x="93.3" y="204.4" fill="#A67EE5" width="9.1" height="12.5"/>
      <rect x="93.3" y="204.4" fill="none" stroke="#FFFFFF" stroke-width="2" stroke-miterlimit="10" width="9.1" height="12.5"/>
      <rect x="202.6" y="204.4" fill="#A67EE5" width="9.1" height="12.5"/>
      <rect x="202.6" y="204.4" fill="none" stroke="#FFFFFF" stroke-width="2" stroke-miterlimit="10" width="9.1" height="12.5"/>
      <path fill="#A67EE5" d="M233.3,239.3v-9.9h-10.4c-3.1,0.1-5.6,2.7-5.5,5.8V251h4.7C228.3,251,233.3,245.8,233.3,239.3"/>
      <path fill="none" stroke="#FFFFFF" stroke-width="2" stroke-miterlimit="10" d="M233.3,239.3v-9.9h-10.4c-3.1,0.1-5.6,2.7-5.5,5.8V251h4.7C228.3,251,233.3,245.8,233.3,239.3z"/>
      <path fill="#A67EE5" d="M54.8,223.7H34c-0.6,0-1-0.4-1-1v-2.5c0-0.6,0.4-1,1-1h20.8c0.6,0,1,0.4,1,1v2.6C55.8,223.3,55.3,223.8,54.8,223.7"/>
      <path fill="none" stroke="#FFFFFF" stroke-width="2" stroke-miterlimit="10" d="M54.8,223.7H34c-0.6,0-1-0.4-1-1v-2.5c0-0.6,0.4-1,1-1h20.8c0.6,0,1,0.4,1,1v2.6C55.7,223.3,55.3,223.7,54.8,223.7z"/>
    </g>

    <g id="leavesOne">
      <set
        attributeType="CSS"
        attributeName="visibility"
        to="hidden"
        begin="delay.end"
        dur="533ms"
      />

            <animateTransform
        attributeName="transform"
        type="rotate"
        values="60.75 133 210; -6.4 133 210; 3 133 210; -0.14 133 210; 3 133 210; -0.14 133 210; 3 133 210; -0.14 133 210;"
        begin="delay.end + 533ms"
        dur="2800ms"
        calcMode="spline"
        keySplines="0.33, 0, 0.67, 1;
                    0.33, 0, 0.67, 1;
                    0.33, 0, 0.67, 1;
                    0.33, 0, 0.67, 1;
                    0.33, 0, 0.67, 1;
                    0.33, 0, 0.67, 1;
                    0.33, 0, 0.67, 1"
        fill="freeze"
      />

      <path display="inline" fill="none" stroke="#3B7BF2" stroke-width="2" stroke-linecap="round" stroke-linejoin="round" d="M96.5,126.3c24.1,32.5,35.8,84,35.8,84"/>
      <path display="inline" fill="#76ABFF" d="M80.5,118.4c6.5,7.5,17.2,9,17.2,9s0-10.7-6.5-18.2s-17.2-9-17.2-9S73.9,110.9,80.5,118.4"/>
      <path display="inline" fill="#3B7BF2" d="M107.9,128.7c-2.7,9.6,1.9,19.3,1.9,19.3s9-5.9,11.7-15.4s-1.9-19.3-1.9-19.3S110.6,119.1,107.9,128.7"/>
      <path display="inline" fill="#3B7BF2" d="M90.6,149.9c9.6,2.7,19.3-1.9,19.3-1.9s-5.9-9-15.4-11.7s-19.3,1.9-19.3,1.9S81,147.2,90.6,149.9"/>
      <path display="inline" fill="#1553B7" d="M120.9,154.7c-3.4,9.4,0.5,19.4,0.5,19.4s9.4-5.2,12.8-14.5s-0.5-19.3-0.5-19.3S124.3,145.4,120.9,154.7"/>
      <path display="inline" fill="#1553B7" d="M102,174.5c9.4,3.4,19.4-0.5,19.4-0.5s-5.2-9.4-14.5-12.8s-19.4,0.5-19.4,0.5S92.6,171.1,102,174.5"/>
    </g>

    <g id="leavesTwo">
      <set
        attributeType="CSS"
        attributeName="visibility"
        to="hidden"
        begin="delay.end"
        dur="533ms"
      />
      <animateTransform
        attributeName="transform"
        type="rotate"
        values="38.8 133 210; -9.57 133 210; 4.29 133 210; 0.31 133 210; 4.29 133 210; 0.31 133 210; 4.29 133 210;"
        begin="delay.end + 533ms"
        dur="2567ms"
        calcMode="spline"
        keySplines="0.33, 0, 0.67, 1;
                    0.33, 0, 0.67, 1;
                    0.33, 0, 0.67, 1;
                    0.33, 0, 0.67, 1;
                    0.33, 0, 0.67, 1;
                    0.33, 0, 0.67, 1;"
        fill="freeze"
      />
      <path display="inline" fill="#3B7BF2" d="M138.5,187c2.3,9.1-2.3,18.1-2.3,18.1s-8.3-5.7-10.6-14.9s2.3-18.1,2.3-18.1S136.2,177.9,138.5,187"/>
      <path display="inline" fill="#3B7BF2" d="M154.4,207.4c-9.1,2.3-18.1-2.3-18.1-2.3s5.7-8.3,14.9-10.6s18.1,2.3,18.1,2.3S163.5,205,154.4,207.4"/>
      <path display="inline" fill="none" stroke="#3B7BF2" stroke-width="2" stroke-linecap="round" stroke-linejoin="round" d="M143.3,193.9c-3.8,5.3-7.3,10.8-10.3,16.6"/>
      <path display="inline" fill="#76ABFF" d="M158.4,186.4c-6.2,7.1-16.2,8.4-16.2,8.4s0-10.1,6.2-17.2s16.2-8.5,16.2-8.5S164.6,179.3,158.4,186.4"/>
    </g>
  </g>

    <g id="motionPath_1_" display="none">
      <path fill="none" stroke="#DB8C2D" stroke-linecap="round" stroke-miterlimit="7" d="M63.1,247c0,8-0.6-160.4-0.6-160.4l5.4,24.6l-12.6-31l3.1,18.3l4.1-11.9"/>
    </g>
    <polyline display="none" fill="none" stroke="#F6ED76" stroke-miterlimit="10" points="193.2,177.4 256.2,102.7 241.7,111.5 "/>
</svg>
