<svg version="1.1" id="Layer_1" xmlns="http://www.w3.org/2000/svg" xmlns:xlink="http://www.w3.org/1999/xlink" width="268" height="260" viewBox="0 0 268 260.5" >

  <defs>
    <g id="clouds">
      <g id="cloud2">
        <line fill="none" stroke="#FFFFFF"
        stroke-width="2" stroke-linecap="round" stroke-miterlimit="10"
        x1="218.2" y1="23.7" x2="258" y2="23.7">

          <animateTransform attributeName="transform"
          type="translate"
          values="0; 15.4"
          dur="2s"
          repeatCount="indefinite"
          fill="freeze"/>
        </line>

        <path fill="none" stroke="#FFFFFF" stroke-width="2" stroke-linecap="round" stroke-miterlimit="10"
        d="M238,13.4h-27.4c0-6.8-5.6-12.4-12.4-12.4c-6.8,0-12.4,5.6-12.4,12.4l0,0h-17.9"/>

        <line fill="none" stroke="#FFFFFF" stroke-width="2" stroke-linecap="round" stroke-miterlimit="10" x1="246.2" y1="13.4" x2="268.4" y2="13.4"/>
      </g>

      <g id="cloud1">
        <line fill="none" stroke="#FFFFFF"
        stroke-width="2" stroke-linecap="round" stroke-miterlimit="10"
        x1="28.2" y1="38.3" x2="91.1" y2="38.3">

          <animateTransform attributeName="transform"
          type="translate"
          values="-11.6; 0"
          dur="2s"
          repeatCount="indefinite"/>

        </line>

        <path fill="none" stroke="#FFFFFF"
        stroke-width="2" stroke-linecap="round" stroke-miterlimit="10"
        d="M1,28.1h35.3c0-6.8,5.6-12.4,12.4-12.4s12.4,5.6,12.4,12.4H79"/>
      </g>

    </g>
  </defs>

  <g id="dirigible">
    <animate attributeType="CSS"

    attributeName="opacity"
    from="1"
    to="0"
    dur="0.5s"
    begin="2.5s"
    fill="freeze"/>

    <g id="basket">
      <animateTransform attributeName="transform"
      type="translate"
      values="-10,6; 0,0; -10,6"
      keySplines="0.33, 0, 0.67, 1; 0.33, 0, 0.67, 1"
      calcMode="spline"
      dur="2s"
      repeatCount="indefinite"/>

      <animateTransform attributeName="transform"
      type="scale"
      values="1,.95; 1,1; 1,.95"
      dur="2s"
      additive="sum"
      repeatCount="indefinite"/>

      <animateTransform attributeName="transform"
      type="skewX"
      values="4; 0; 4"
      keySplines="0.33, 0, 0.67, 1; 0.33, 0, 0.67, 1"
      calcMode="spline"
      dur="2s"
      additive="sum"
      repeatCount="indefinite"/>

      <path id="basket_1_" fill="none" stroke="#FFFFFF" stroke-width="2" stroke-linecap="round" stroke-linejoin="round"
      d="M134.7,179.8H183c6.3,0,11.8-4.5,13-10.6l3.7-18.3h-68.2v25.9C131.6,178.4,133,179.8,134.7,179.8z"/>

      <path id="frontWindow" fill="none" stroke="#FFFFFF"
      stroke-width="2" stroke-linecap="round"
      stroke-miterlimit="10"
      d="M195,172.2h-9.2c-4.6,0-8.3-3.7-8.3-8.3v-13.1"/>

      <path id="windowOne" fill="none" stroke="#FFFFFF"
      stroke-width="2" stroke-linecap="round"
      stroke-linejoin="round"
      d="M163.5,162.4h-2.1c-1.9,0-3.4,1.6-3.4,3.4v2.9c0,1.9,1.5,3.4,3.4,3.4h2.1c1.9,0,3.4-1.6,3.4-3.4v-2.9C166.9,164,165.4,162.4,163.5,162.4L163.5,162.4z">

        <set attributeType="CSS"
        attributeName="opacity"
        to="0"
        begin="2.55s"
        dur="2.5s"/>

      </path>

      <path id="windowTwo" fill="none"
      stroke="#FFFFFF" stroke-width="2" stroke-linecap="round" stroke-linejoin="round"
      d="M144.9,162.4h-2.1c-1.9,0-3.4,1.6-3.4,3.4v2.9c0,1.9,1.5,3.4,3.4,3.4h2.1c1.9,0,3.4-1.6,3.4-3.4v-2.9C148.3,164,146.8,162.4,144.9,162.4z"/>
    </g>

    <g id="leftTails">
      <animateTransform attributeName="transform"
      type="translate"
      values="0,3; 0,-3; 0,3;"
      keySplines="0.6, 0, 0.4, 1; 0.6, 0, 0.4, 1"
      calcMode="spline"
      fill="freeze"
      dur="2s"
      repeatCount="indefinite"/>

      <g id="tailDownTwo">
        <path fill="#068E4D"
        d="M82.5,137.9h9.2c1.8,0,3.3-1.5,3.3-3.3c0,0,0,0,0,0v-5.7c0-1.8-1.5-3.3-3.3-3.3c0,0,0,0,0,0H74.8c-0.7,0-1.3,0.6-1.3,1.3l0,0v2C73.5,133.9,77.5,137.9,82.5,137.9"/>

        <path fill="none" stroke="#FFFFFF" stroke-width="2" stroke-linecap="round" stroke-linejoin="round"
        d="M82.5,137.9h9.2c1.8,0,3.3-1.5,3.3-3.3c0,0,0,0,0,0v-5.7c0-1.8-1.5-3.3-3.3-3.3c0,0,0,0,0,0H74.8c-0.7,0-1.3,0.6-1.3,1.3l0,0v2
        C73.5,133.9,77.5,137.9,82.5,137.9z"/>
      </g>

      <g id="tailUpTwo">
        <path fill="#068E4D"
        d="M82.5,103.9h9.2c1.8,0,3.3,1.5,3.3,3.3c0,0,0,0,0,0v5.7c0,1.8-1.5,3.3-3.3,3.3c0,0,0,0,0,0H74.8c-0.7,0-1.3-0.6-1.3-1.3l0,0v-2C73.5,107.9,77.5,103.9,82.5,103.9"/>

        <path fill="none" stroke="#FFFFFF" stroke-width="2" stroke-linecap="round" stroke-linejoin="round"
        d="M82.5,103.9h9.2c1.8,0,3.3,1.5,3.3,3.3c0,0,0,0,0,0v5.7c0,1.8-1.5,3.3-3.3,3.3c0,0,0,0,0,0H74.8c-0.7,0-1.3-0.6-1.3-1.3l0,0v-2
        C73.5,107.9,77.5,103.9,82.5,103.9z"/>
      </g>
    </g>

    <g id="hull">
      <path fill="#068E4D"
      d="M164.2,157.6c43.4,0,74.9-15.6,74.9-37s-31.5-37-74.9-37c-27.9,0-55.4,13.5-73.5,24.9c-6.7,4.2-8.7,13-4.5,19.7c1.1,1.8,2.7,3.4,4.5,4.5C108.9,144,136.3,157.6,164.2,157.6"/>

      <path fill="none" stroke="#FFFFFF" stroke-width="2"
      d="M164.2,157.6c43.4,0,74.9-15.6,74.9-37s-31.5-37-74.9-37c-27.9,0-55.4,13.5-73.5,24.9c-6.7,4.2-8.7,13-4.5,19.7c1.1,1.8,2.7,3.4,4.5,4.5C108.9,144.1,136.3,157.6,164.2,157.6z"/>

      <path fill="#36E69A"
      d="M 85.3 121 C 85.1 116.4 87.4 112 91.4 109.6 C 108.2 99 136 84.9 164.2 84.9 C 209 84.9 237.8 100.9 237.8 120.7 C 237.8 120.8 237.8 120.9 237.8 121.1 C 225.3 121 86.8 121 85.3 121 Z"/>

      <path fill="#068E4D"
      d="M91.4,125.7c16.7,4.3,44.6,10,72.8,10c44.1,0,72.8-6.3,73.6-14.2c-0.9,19.3-29.4,34.9-73.6,34.9c-28.2,0-56.1-14.2-72.8-24.7c-3.5-2.2-5.8-6-6-10.2C85.7,123.1,87.7,124.7,91.4,125.7"/>

      <path id="hullMiddle" fill="#25B774"
      d="M91.4,116.7c16.7-4.3,44.6-10,72.8-10c44.5,0,73.3,6.4,73.6,14.4c0,0.2,0,0.3,0,0.5c-0.9,7.9-29.4,14.2-73.6,14.2c-28.2,0-56.1-5.8-72.8-10c-3.8-1-5.8-2.5-6-4.1v-0.5c0.1-1.7,2.1-3.4,6.1-4.4">
        <animate attributeName="d"
        values="M 91.4 116.7 C 108.1 112.4 136.2 104.4 164.4 104.4 C 208.9 104.4 237.5 113.1 237.8 121 C 237.8 121.2 237.8 121.3 237.8 121.5 C 236.9 129.4 208.4 134.3 164.3 134.3 C 136.1 134.3 108.1 129.9 91.4 125.7 C 87.6 124.7 85.6 123.2 85.4 121.6 L 85.4 121.1 C 85.5 119.4 87.5 117.7 91.5 116.7;
        M 91.4 116.6 C 108.1 112.3 136.1 110 164.3 110 C 208.8 110 237.5 113.1 237.8 121 C 237.8 121.2 237.8 121.3 237.8 121.5 C 236.9 129.4 208.3 138.8 164.2 138.8 C 136 138.8 108.2 129.9 91.4 125.7 C 87.6 124.7 85.6 123.2 85.4 121.6 L 85.4 121.1 C 85.5 119.4 87.5 117.7 91.5 116.7;
        M 91.4 116.7 C 108.1 112.4 136.2 104.4 164.4 104.4 C 208.9 104.4 237.5 113.1 237.8 121 C 237.8 121.2 237.8 121.3 237.8 121.5 C 236.9 129.4 208.4 134.3 164.3 134.3 C 136.1 134.3 108.1 129.9 91.4 125.7 C 87.6 124.7 85.6 123.2 85.4 121.6 L 85.4 121.1 C 85.5 119.4 87.5 117.7 91.5 116.7"
        dur="2s"
        keySplines="0.6, 0, 0.4, 1; 0.6, 0, 0.4, 1"
        calcMode="spline"
        repeatCount="indefinite"/>
      </path>
    </g>

    <g id="rightTails">
      <animateTransform attributeName="transform"
      type="translate"
      values="0,-3; 0,3; 0,-3"
      keySplines="0.6, 0, 0.4, 1; 0.6, 0, 0.4, 1"
      calcMode="spline"
      fill="freeze"
      dur="2s"
      repeatCount="indefinite"/>

      <g id="tailDownOne">
        <path fill="#068E4D"
        d="M82.5,137.9h9.2c1.8,0,3.3-1.5,3.3-3.3c0,0,0,0,0,0v-5.7c0-1.8-1.5-3.3-3.3-3.3c0,0,0,0,0,0H74.8c-0.7,0-1.3,0.6-1.3,1.3l0,0v2C73.5,133.9,77.5,137.9,82.5,137.9"/>

        <path fill="none" stroke="#FFFFFF" stroke-width="2" stroke-linecap="round" stroke-linejoin="round"
        d="M82.5,137.9h9.2c1.8,0,3.3-1.5,3.3-3.3c0,0,0,0,0,0v-5.7c0-1.8-1.5-3.3-3.3-3.3c0,0,0,0,0,0H74.8c-0.7,0-1.3,0.6-1.3,1.3l0,0v2C73.5,133.9,77.5,137.9,82.5,137.9z"/>
      </g>

      <g id="tailUpOne">
        <path fill="#068E4D"
        d="M82.5,103.9h9.2c1.8,0,3.3,1.5,3.3,3.3c0,0,0,0,0,0v5.7c0,1.8-1.5,3.3-3.3,3.3c0,0,0,0,0,0H74.8c-0.7,0-1.3-0.6-1.3-1.3l0,0v-2C73.5,107.9,77.5,103.9,82.5,103.9"/>

        <path fill="none" stroke="#FFFFFF" stroke-width="2" stroke-linecap="round" stroke-linejoin="round"
        d="M82.5,103.9h9.2c1.8,0,3.3,1.5,3.3,3.3c0,0,0,0,0,0v5.7c0,1.8-1.5,3.3-3.3,3.3c0,0,0,0,0,0H74.8c-0.7,0-1.3-0.6-1.3-1.3l0,0v-2C73.5,107.9,77.5,103.9,82.5,103.9z"/>
      </g>
    </g>

    <g id="trail">
      <line fill="none" stroke="#FFFFFF"
      stroke-width="2" stroke-linecap="round" stroke-miterlimit="10"
      x1="65.5" y1="110" x2="43.3" y2="110">
        <animate attributeName="x2"
        from="43.3"
        to="48.3"
        dur="100ms"
        begin="66ms"
        repeatCount="indefinite"/>
      </line>

      <line fill="none" stroke="#FFFFFF"
      stroke-width="2" stroke-linecap="round" stroke-miterlimit="10"
      x1="65.5" y1="131.8" x2="43.3" y2="131.8">
        <animate attributeName="x2"
        from="43.3"
        to="48.3"
        dur="100ms"
        begin="33ms"
        repeatCount="indefinite"/>
      </line>

      <line fill="none" stroke="#FFFFFF"
      stroke-width="2" stroke-linecap="round" stroke-miterlimit="10"
      x1="65.5" y1="121.5" x2="28" y2="121.5">
        <animate attributeName="x2"
        from="28"
        to="33"
        dur="100ms"
        repeatCount="indefinite"/>
      </line>

    </g>
  </g>

  <use xlink:href="#clouds">
    <animate attributeType="CSS"
    attributeName="opacity"
    values="0; 1; 1; 0"
    keyTimes="0; 0.08; 0.92; 1"
    dur="2s"
    fill="freeze"/>

    <animateTransform attributeName="transform"
    type="translate"
    values="189; 0"
    dur="2s"
    />
  </use>

  <g id="mountain">
    <path fill="none" stroke="#FFFFFF" stroke-width="2" stroke-linecap="round" stroke-miterlimit="10"
    d="M249.2,258.4h-45.1L172,227.1c-0.7-0.6-1.7-0.6-2.4,0l-10.2,10.2c-0.6,0.6-1.6,0.6-2.2,0l-19-20.2c-0.9-0.8-2.2-0.8-3.1,0l-26.4,25.6c-0.6,0.6-1.6,0.6-2.2,0l-2.6-2.9c-0.7-0.6-1.7-0.6-2.3,0l-17.6,19.6H40">

      <animate attributeName="d"
      values="M 249.2 258.4 L 204.1 258.4 L 172 227.1 C 171.3 226.5 170.3 226.5 169.6 227.1 L 159.4 237.3 C 158.8 237.9 157.8 237.9 157.2 237.3 L 138.2 217.1 C 137.3 216.3 136 216.3 135.1 217.1 C 126.3 225.633 117.5 234.167 108.7 242.7 C 108.1 243.3 107.1 243.3 106.5 242.7 C 105.633 241.733 104.767 240.767 103.9 239.8 C 103.2 239.2 102.2 239.2 101.6 239.8 C 95.733 246.333 89.867 252.867 84 259.4 L 40 259.4;
      M 249.2 258.5 L 226.75 258.5 L 204.3 258.5 C 196.817 258.5 189.333 258.5 181.85 258.5 L 159.4 258.5 C 158.5 258.5 157.8 258.5 157.2 258.5 L 138.2 258.5 C 137.45 258.5 136.9 258.5 136.425 258.5 C 135.95 258.5 135.55 258.5 135.1 258.5 C 124.333 258.5 113.567 258.5 102.8 258.5 C 102.433 258.5 102.122 258.5 101.848 258.5 C 101.574 258.5 101.337 258.5 101.119 258.5 C 100.9 258.5 100.7 258.5 100.5 258.5 L 40 258.5"
      dur="0.5s"
      begin="2.5s"
      fill="freeze"/>
    </path>
  </g>

  <g id="skies" transform="translate(-147)" style="opacity:0">
    <animate attributeType="CSS"
    attributeName="opacity"
    from="0"
    to="1"
    dur="300ms"
    begin="2.9s"
    keySplines="0.33, 0, 0, 1"
    calcMode="spline"
    fill="freeze"/>

    <animateTransform attributeName="transform"
    type="translate"
    from="-147"
    to="0"
    dur="467ms"
    begin="2.73s"
    keySplines="0.33, 0, 0, 1"
    calcMode="spline"
    fill="freeze"/>

    <animateTransform attributeName="transform"
    type="rotate"
    values="0 105 258; -1 105 258; 0 105 258; 0 105 258"
    keyTimes="0; .1; .2; 1"
    keySplines="0.33, 0, 0.67, 1; 0.33, 0, 0.67, 1; 0.33, 0, 0.67, 1" dur="3s"
    begin="4s"
    repeatCount="indefinite"
    additive="sum"/>

    <path fill="#FFFFFF"
    d="M58.4,258.1c-1.2-0.1-2.1-1.2-2-2.4L70,62.5c1.1-15.5-4.8-21.9-8.8-24.5c-0.6-0.4-0.8-1.3-0.4-1.9c0.2-0.3,0.5-0.5,0.9-0.6c8.4-1.3,27.6-1.3,25.4,28.8L73.6,257c-0.1,1.2-1.2,2.1-2.3,2L58.4,258.1z"/>

    <path fill="#FFFFFF"
    d="M91.7,258.5c-1.2,0-2.2-1-2.2-2.2c0,0,0,0,0,0l2.2-193.6C92,47.1,85.7,41,81.6,38.7c-0.6-0.4-0.8-1.2-0.5-1.9c0.2-0.3,0.5-0.5,0.8-0.6c8.4-1.9,27.5-3,27.1,27.3l-2.2,192.9c0,1.2-1,2.2-2.2,2.2c0,0,0,0,0,0L91.7,258.5z"/>
  </g>

  <g id="armchair" transform="translate(-142)" style="opacity:0">
    <animate attributeType="CSS"
    attributeName="opacity"
    to="1"
    dur="467ms"
    begin="2.73s"
    keySplines="0.33, 0, 0, 1"
    calcMode="spline"
    fill="freeze"/>

    <animateTransform
    attributeName="transform"
    type="translate"
    to="0"
    dur="467ms"
    begin="2.73s"
    keySplines="0.33, 0, 0, 1"
    calcMode="spline"
    fill="freeze"/>

    <animateTransform attributeName="transform"
    type="skewX"
    from="-8"
    to="0"
    dur="467ms"
    begin="2.73s"
    keySplines="0.33, 0, 0, 1"
    calcMode="spline"
    fill="freeze"
    additive="sum"/>

    <path fill="#A67EE5"
    d="M224.7,190.1H164v-14.2h55.1c5.5,0,9.9,4.5,9.9,9.9C229,188.2,227.1,190.1,224.7,190.1"/>

    <path fill="none" stroke="#FFFFFF"
    stroke-width="2" stroke-miterlimit="10"
    d="M224.7,190.1H164v-14.2h55.1c5.5,0,9.9,4.5,9.9,9.9C229,188.2,227.1,190.1,224.7,190.1z"/>

    <polygon fill="#A67EE5"
    points="152.7,258.6 138.7,258.6 132.4,217 146.4,217 "/>

    <polygon fill="none" stroke="#FFFFFF" stroke-width="2" stroke-miterlimit="10"
    points="152.7,258.6 138.7,258.6 132.4,217 146.4,217"/>

    <polygon fill="#A67EE5"
    points="202.2,258.6 188.3,258.6 182,217 195.9,217"/>

    <polygon fill="none" stroke="#FFFFFF"
    stroke-width="2" stroke-miterlimit="10"
    points="202.2,258.6 188.3,258.6 182,217 195.9,217"/>

    <path fill="#A67EE5"
    d="M248.5,202.7h-55.9c-2.8,0-5.1-2-5.5-4.8l-10.9-72.2c7.5-6.2,8.6-17.4,2.3-24.9c-3.6-4.4-9.2-6.8-14.8-6.4h-55.1l-0.3,102.9l15.8,23.4l47.2,8.4c1.4,0.5,2.8,0.7,4.2,0.8h73c7.5,0,13.5-6.1,13.5-13.5C262.1,208.8,256,202.7,248.5,202.7"/>

    <path fill="none" stroke="#FFFFFF" stroke-width="2" stroke-miterlimit="10" d="M248.5,202.7h-55.9c-2.8,0-5.1-2-5.5-4.8l-10.9-72.2c7.5-6.2,8.6-17.4,2.3-24.9c-3.6-4.4-9.2-6.8-14.8-6.4h-55.1l-0.3,102.9l15.8,23.4l47.2,8.4c1.4,0.5,2.8,0.7,4.2,0.8h73c7.5-0.3,13.3-6.6,13-14C261.3,208.7,255.6,203,248.5,202.7z"/>

    <path fill="#A67EE5" d="M129.6,198l-10.9-72.2c7.5-6.2,8.6-17.4,2.4-24.9c-6.2-7.5-17.4-8.6-24.9-2.4c-4.1,3.4-6.4,8.4-6.4,13.7c0,1.8,0.3,3.5,0.8,5.2l15.3,101.9c0.9,6.1,6.1,10.5,12.2,10.5h73c7.5-0.2,13.4-6.4,13.2-13.9c-0.2-7.2-6-13-13.2-13.2h-55.9C132.4,202.8,130.1,200.7,129.6,198"/>

    <path fill="none" stroke="#FFFFFF" stroke-width="2" stroke-miterlimit="10" d="M129.6,198l-10.9-72.2c7.5-6.2,8.6-17.4,2.4-24.9c-6.2-7.5-17.4-8.6-24.9-2.4c-4.1,3.4-6.4,8.4-6.4,13.7c0,1.8,0.3,3.5,0.8,5.2l15.3,101.9c0.9,6.1,6.1,10.5,12.2,10.5h73c7.5-0.2,13.4-6.4,13.2-13.9c-0.2-7.2-6-13-13.2-13.2h-55.9C132.4,202.8,130,200.7,129.6,198z"/>

    <path fill="#A67EE5" d="M173.5,190.1h-72l-2.1-14.2h68.5c5.5,0,9.9,4.5,9.9,9.9C177.7,188.2,175.8,190.1,173.5,190.1"/>
    <path fill="none" stroke="#FFFFFF" stroke-width="2" stroke-miterlimit="10" d="M173.5,190.1h-72l-2.1-14.2h68.5c5.5,0,9.9,4.5,9.9,9.9C177.7,188.2,175.8,190.1,173.5,190.1z"/>

    <line fill="none" stroke="#FFFFFF" stroke-width="2" stroke-linecap="round" stroke-miterlimit="10" x1="118.8" y1="125.7" x2="176.3" y2="125.7"/>
  </g>

  <g id="plant" transform="translate(-147)">
    <animateTransform attributeName="transform"
    type="translate"
    to="0"
    dur="467ms"
    begin="2.73s"
    keySplines="0.33, 0, 0, 1"
    calcMode="spline"
    fill="freeze"/>

    <animateTransform attributeName="transform"
    type="rotate"
    from="-7 118 258"
    to="5 118 258"
    dur="467ms"
    begin="2.73s"
    keySplines="0.33, 0, 0, 1"
    calcMode="spline"
    fill="freeze"
    additive="sum"/>

    <animateTransform attributeName="transform"
    type="rotate"
    values="5 118 258; -2.5 118 258; 1.2 118 258; 0 118 258;  0 118 258; 5 118 258"
    dur="3.1s"
    begin="3.2s"
    keySplines="0.33, 0, 0.67, 1 ; 0.33, 0, 0.67, 1 ; 0.33, 0, 0.67, 1 ; 0.33, 0, 0.67, 1 ; 0.33, 0, 0.67, 1"
    keyTimes="0; 0.11; 0.22; 0.33; 0.9; 1"
    calcMode="spline"
    repeatCount="indefinite"
    additive="sum"/>

    <path fill="#36E69A" d="M46.4,124.3c6.2,8.3,11.5,17.3,15.6,26.9c-7.2-7.4-13.9-15.3-20.1-23.6c-6.2-8.3-11.9-16.9-17.1-25.9C32.9,108.4,40.1,116,46.4,124.3"/>

    <path fill="#36E69A" d="M48.2,144.7c8.4,5.9,16.1,12.8,22.8,20.5c-8.9-4.7-17.6-9.9-25.8-15.7c-8.2-5.7-16-12-23.4-18.7C31.1,134.3,40,139,48.2,144.7"/>

    <path fill="#36E69A" d="M60.9,135.8c2.8,10,6.1,19.8,10.1,29.4c-0.2-10.3-1.8-20.6-4.5-30.5c-2.9-10.3-6.9-20.1-12.1-29.4C55.9,115.5,58.1,125.7,60.9,135.8"/>

    <path fill="#25B774" d="M74.5,143.8c0.1,10.3,0.7,20.5,2.1,30.7c2.5-9.8,3.8-19.9,3.8-30.1c-0.1-10.6-1.4-21.1-4-31.4C75.1,123.3,74.4,133.5,74.5,143.8"/>

    <path fill="#25B774" d="M50.3,159.8c9.3,3.8,18.2,8.7,26.3,14.6c-9.6-2.4-19-5.5-28.2-9.2c-9.1-3.7-17.9-7.9-26.4-12.7C31.8,153.8,41.2,156.3,50.3,159.8"/>

    <path fill="#25B774" d="M55.3,174.1c9.6,2.5,18.9,6.3,27.6,11.2c-9.7-1.2-19.3-3.1-28.8-5.6c-9.3-2.5-18.5-5.6-27.4-9.3C36.3,170.4,45.9,171.6,55.3,174.1"/>

    <path fill="#25B774" d="M85.9,155.1c-1.7,10-2.7,20.1-3.1,30.2c4.1-9.1,7.1-18.7,8.8-28.5c1.7-10.3,2.2-20.8,1.4-31.2C90,135.2,87.6,145.1,85.9,155.1"/>

    <path fill="#068E4D" d="M66.1,192.3c9.5,3,18.6,7.1,27.1,12.3c-9.7-1.6-19.2-3.9-28.5-6.8c-9.2-2.9-18.2-6.4-27-10.5C47.3,187.8,56.8,189.5,66.1,192.3"/>

    <path fill="#068E4D" d="M97.5,174.6c-2.1,9.9-3.5,20-4.3,30.1c4.5-8.9,7.9-18.4,10-28.2c2.2-10.2,3.1-20.7,2.7-31.1C102.4,154.9,99.6,164.7,97.5,174.6"/>

    <path fill="#068E4D" d="M76.1,211c9.4,3.4,18.3,7.9,26.5,13.5c-9.6-2-19-4.7-28.2-8c-9.1-3.3-18-7.1-26.6-11.6C57.5,205.7,67,207.7,76.1,211"/>

    <path fill="#068E4D" d="M108.2,194.5c-2.5,9.8-4.4,19.8-5.6,29.9c4.9-8.7,8.6-18,11.1-27.7c2.6-10.1,3.9-20.5,4-31C113.9,175.1,110.7,184.7,108.2,194.5"/>

    <path fill="none" stroke="#36E69A"
    stroke-width="2" stroke-linecap="round" stroke-linejoin="round"
    d="M59.8,148c23.2,34.4,42.3,71.5,56.9,110.3"/>
  </g>

  <path id="windowOneAnimated" fill="none" stroke="#FFFFFF" stroke-width="2" stroke-linecap="round" stroke-linejoin="round"
  d="M163.5,162.4h-2.1c-1.9,0-3.4,1.6-3.4,3.4v2.9c0,1.9,1.5,3.4,3.4,3.4h2.1c1.9,0,3.4-1.6,3.4-3.4v-2.9C166.9,164,165.4,162.4,163.5,162.4L163.5,162.4z">

    <set attributeType="CSS"
    attributeName="opacity"
    to="0"
    dur="2.5s"/>

    <animate attributeName="d"
    values="M 163.5 172.1 C 165.4 172.1 166.9 170.5 166.9 168.7 C 166.9 167.733 166.9 166.767 166.9 165.8 C 166.9 164 165.4 162.4 163.5 162.4 L 163.5 162.4 C 163.5 162.4 163.5 162.4 163.5 162.4 L 161.4 162.4 C 159.5 162.4 158 164 158 165.8 L 158 168.7 C 158 170.6 159.5 172.1 161.4 172.1 L 163.5 172.1;
    M 242.2 155.7 C 242.2 155.7 242.2 155.7 242.2 155.7 C 251.9 155.7 259.7 147.8 259.7 138.1 C 259.7 131.8 259.7 125.5 259.7 119.2 L 259.7 100.3 C 259.7 90.6 251.9 82.7 242.2 82.7 L 225.1 82.7 C 215.4 82.8 207.6 90.6 207.6 100.3 L 207.6 138.1 C 207.6 147.8 215.4 155.7 225.1 155.7 L 242.2 155.7"
    begin="2.5s"
    dur="0.5s"
    fill="freeze"/>
  </path>

  <!--Generator: Adobe Illustrator 24.1.3, SVG Export Plug-In-->
  <g>
    <defs>
      <clipPath id="windowMask">
        <path d="M 242.2 155.7 C 242.2 155.7 242.2 155.7 242.2 155.7 C 251.9 155.7 259.7 147.8 259.7 138.1 C 259.7 131.8 259.7 125.5 259.7 119.2 L 259.7 100.3 C 259.7 90.6 251.9 82.7 242.2 82.7 L 225.1 82.7 C 215.4 82.8 207.6 90.6 207.6 100.3 L 207.6 138.1 C 207.6 147.8 215.4 155.7 225.1 155.7 L 242.2 155.7"/>
      </clipPath>
    </defs>

    <g clip-path="url(#windowMask)">
      <g transform="scale(0.5)">
          <animateTransform attributeName="transform"
          type="translate"
          values="500 206; 140 206"
          dur="3s"
          repeatCount="indefinite"
          additive="sum"/>

        <use xlink:href="#clouds">
          <set attributeName="opacity"
          to="0"
          dur="3.5s"/>
        </use>

      </g>
    </g>
  </g>
</svg>
