<svg
  xmlns="http://www.w3.org/2000/svg"
  viewBox="0 0 570 108"
>
  <g id="win" style="color: #ffffff">
    <path
      d="M59.4,22.9v67.6h13.5v-84H0.5v84h13.4V22.9H59.4z"
      transform="translate(0 -1.5)"
      fill="none"
      stroke="currentColor"
    >
      <animate
        attributeName="stroke-dasharray"
        dur="432ms"
        fill="freeze"
        values="0 200; 200 0"
        caclMode="spline"
        keySplines="0.21, 0, 0.8, 1"
      />
    </path>

    <path
      d="M87.1,48.5c0,24.5,26.6,44.4,59.5,44.4s59.5-19.9,59.5-44.4S179.5,4.1,146.7,4.1S87.1,24,87.1,48.5 M101.9,48.5c0-15.5,20-27.8,44.8-27.8c24.5,0,44.4,12.5,44.4,27.8s-19.9,27.7-44.4,27.7C121.9,76.2,101.9,64,101.9,48.5"
      transform="translate(-2.1 -1.5)"
      fill="none"
      stroke="currentColor"
    >
      <animate
        attributeName="stroke-dasharray"
        dur="432ms"
        fill="freeze"
        values="0 200; 200 0"
        caclMode="spline"
        keySplines="0.21, 0, 0.8, 1"
      />
    </path>

    <path
      d="M220.5,6.5v84h38.8c25.5,0,34-11,34-26.6c0-15.4-8.6-26.5-34-26.5h-25.3V22.9h51.4V6.5H220.5M233.9,75V52.9h20.9c15.1,0,23.5,1,23.5,10.6S269.9,75,254.8,75H233.9"
      transform="translate(-2.1 -1.5)"
      fill="none"
      stroke="currentColor"
    >
      <animate
        attributeName="stroke-dasharray"
        dur="432ms"
        fill="freeze"
        values="0 200; 200 0"
        caclMode="spline"
        keySplines="0.21, 0, 0.8, 1"
      />
    </path>

    <path
      d="M305.3,6.5v84h64.1V74.1h-50.6V56.5h33.6V40.1h-33.6V22.9h50.6V6.5h0H305.3"
      transform="translate(-2.1 -1.5)"
      fill="none"
      stroke="currentColor"
    >
      <animate
        attributeName="stroke-dasharray"
        dur="432ms"
        fill="freeze"
        values="0 200; 200 0"
        caclMode="spline"
        keySplines="0.21, 0, 0.8, 1"
      />
    </path>

    <path
      d="M394.9,108.7V90.5h45.9v18.2h14.7V74.1h-10V6.5h-48.6l-0.4,11.6c-1,37.6-4.2,51.3-8.8,56h-7.4v34.7H394.9 M402.2,74.1c4-10.3,6.7-25.6,7.2-48v-3.1H432v51.1h0H402.2"
      transform="translate(-2.1 -1.5)"
      fill="none"
      stroke="currentColor"
    >
      <animate
        attributeName="stroke-dasharray"
        dur="432ms"
        fill="freeze"
        values="0 200; 200 0"
        caclMode="spline"
        keySplines="0.21, 0, 0.8, 1"
      />
    </path>

    <path
      d="M478,90.5l7.8-23.5h37.8l7.8,23.5h13.5l-28.1-84h-27.1l-28,84H478 M491.4,50.5l13.5-40.2l13.4,40.2H491.4"
      transform="translate(-2.1 -1.5)"
      fill="none"
      stroke="currentColor"
    >
      <animate
        attributeName="stroke-dasharray"
        dur="432ms"
        fill="freeze"
        values="0 200; 200 0"
        caclMode="spline"
        keySplines="0.21, 0, 0.8, 1"
      />
    </path>

    <path
      d="M568.3,68.9l-1.4-68.4h-13.5L552,68.9H568.3 M552.2,83.4c0,4.4,3.6,8,8,8c4.4,0,8-3.6,8-8
    c0-4.9-3.2-8.2-8-8.2h0C555.5,75.3,552.2,78.5,552.2,83.4"
      transform="translate(-2.1 -1.5)"
      fill="none"
      stroke="currentColor"
    >
      <animate
        attributeName="stroke-dasharray"
        dur="432ms"
        fill="freeze"
        values="0 200; 200 0"
        caclMode="spline"
        keySplines="0.21, 0, 0.8, 1"
      />
    </path>
  </g>
</svg>
